<?xml version="1.0" encoding="UTF-8" standalone="no"?>
<!-- Generator: Adobe Illustrator 16.0.0, SVG Export Plug-In . SVG Version: 6.00 Build 0)  -->

<svg
   xmlns:dc="http://purl.org/dc/elements/1.1/"
   xmlns:cc="http://creativecommons.org/ns#"
   xmlns:rdf="http://www.w3.org/1999/02/22-rdf-syntax-ns#"
   xmlns:svg="http://www.w3.org/2000/svg"
   xmlns="http://www.w3.org/2000/svg"
   xmlns:sodipodi="http://sodipodi.sourceforge.net/DTD/sodipodi-0.dtd"
   xmlns:inkscape="http://www.inkscape.org/namespaces/inkscape"
   version="1.1"
   id="Layer_1"
   x="0px"
   y="0px"
   width="999.99994"
   height="157.35007"
   viewBox="0 0 999.99994 157.35006"
   enable-background="new 0 0 918 464"
   xml:space="preserve"
   sodipodi:docname="Logo-Bank-Tabungan-Negara.svg"
   inkscape:version="0.92.3 (2405546, 2018-03-11)"><metadata
   id="metadata21"><rdf:RDF><cc:Work
       rdf:about=""><dc:format>image/svg+xml</dc:format><dc:type
         rdf:resource="http://purl.org/dc/dcmitype/StillImage" /><dc:title></dc:title></cc:Work></rdf:RDF></metadata><defs
   id="defs19" /><sodipodi:namedview
   pagecolor="#ffffff"
   bordercolor="#666666"
   borderopacity="1"
   objecttolerance="10"
   gridtolerance="10"
   guidetolerance="10"
   inkscape:pageopacity="0"
   inkscape:pageshadow="2"
   inkscape:window-width="1280"
   inkscape:window-height="738"
   id="namedview17"
   showgrid="false"
   fit-margin-top="0"
   fit-margin-left="0"
   fit-margin-right="0"
   fit-margin-bottom="0"
   inkscape:zoom="1"
   inkscape:cx="428.964"
   inkscape:cy="33.327991"
   inkscape:window-x="-8"
   inkscape:window-y="-8"
   inkscape:window-maximized="1"
   inkscape:current-layer="Layer_1" />

<g
   id="g838"
   transform="scale(1.193873)"><g
     transform="translate(-30.036,-133.53)"
     id="g10">
	<polygon
   style="fill:#b8985d"
   id="polygon2"
   points="90.906,238.973 75.69,247.775 75.69,265.328 90.906,256.539 106.13,265.328 106.13,247.775 " />
	<polygon
   style="fill:#b8985d"
   id="polygon4"
   points="90.902,221.387 136.56,247.775 136.56,230.176 90.902,203.816 45.271,230.176 45.271,247.775 " />
	<polygon
   style="fill:#005dac"
   id="polygon6"
   points="136.568,177.479 90.911,151.105 45.267,177.479 45.267,247.775 30.036,238.973 30.036,168.676 90.911,133.53 151.794,168.676 151.794,238.973 136.568,247.775 " />
	<polygon
   style="fill:#005dac"
   id="polygon8"
   points="90.902,186.259 75.694,195.031 75.694,265.318 60.488,256.543 60.488,186.259 90.902,168.676 121.344,186.259 121.344,256.543 106.13,265.318 106.13,195.031 " />
</g><g
     transform="translate(-30.036,-133.53)"
     id="g14">
	<path
   style="fill:#005dac"
   inkscape:connector-curvature="0"
   id="path12"
   d="m 848.47,202.244 4.81,12.589 h -9.874 z m 8.05,21.394 c 0.433,1.296 1.044,3.223 1.837,5.779 0.216,0 0.882,-0.046 1.998,-0.136 1.116,-0.09 1.998,-0.135 2.646,-0.135 0.216,0 0.882,0.045 1.999,0.135 1.115,0.09 1.998,0.136 2.646,0.136 l -15.069,-37.539 -2.053,0.162 -2.053,-0.162 -15.447,37.539 2.593,-0.271 2.538,0.271 c 0.324,-1.163 0.747,-2.518 1.27,-4.063 0.521,-1.544 1.358,-3.953 2.512,-7.226 h 12.585 c 0.647,1.585 1.313,3.422 1.998,5.51 z m -43.48,-28.303 c 1.872,0 3.259,0.197 4.159,0.592 1.332,0.61 2.16,1.758 2.484,3.444 0.18,0.933 0.271,1.829 0.271,2.69 0,5.166 -2.359,7.749 -7.076,7.749 -0.252,0 -0.485,0 -0.702,0 -0.216,0 -0.45,-0.019 -0.702,-0.055 v -14.421 h 1.566 z m -7.993,33.946 c 0.972,-0.09 1.764,-0.135 2.376,-0.135 0.144,0 0.99,0.071 2.539,0.216 0.396,0.036 0.899,0.055 1.512,0.055 v -17.338 h 0.379 l 3.511,5.995 6.427,11.343 c 0.217,0 0.909,-0.046 2.08,-0.136 1.169,-0.09 2.097,-0.135 2.781,-0.135 0.252,0 0.963,0.045 2.134,0.135 1.17,0.09 2.097,0.136 2.781,0.136 l -2.106,-3.35 c -0.756,-1.188 -1.98,-3.078 -3.673,-5.671 -2.521,-3.889 -4.482,-7.057 -5.887,-9.506 2.592,-0.54 4.645,-1.656 6.157,-3.349 1.512,-1.692 2.269,-3.816 2.269,-6.374 0,-3.492 -1.566,-6.066 -4.699,-7.724 -1.045,-0.54 -2.143,-0.854 -3.295,-0.945 -1.153,-0.089 -2.971,-0.135 -5.455,-0.135 h -11.505 v 37.053 c 0.143,0.001 0.701,-0.045 1.674,-0.135 z m -25.605,-27.037 4.81,12.589 h -9.874 z m 8.05,21.394 c 0.433,1.296 1.044,3.223 1.837,5.779 0.216,0 0.882,-0.046 1.998,-0.136 1.116,-0.09 1.998,-0.135 2.646,-0.135 0.216,0 0.882,0.045 1.999,0.135 1.115,0.09 1.998,0.136 2.646,0.136 l -15.069,-37.539 -2.053,0.162 -2.053,-0.162 -15.447,37.539 2.593,-0.271 2.538,0.271 c 0.324,-1.163 0.747,-2.518 1.27,-4.063 0.521,-1.544 1.358,-3.953 2.512,-7.226 h 12.585 c 0.648,1.585 1.314,3.422 1.998,5.51 z m -30.516,-10.696 c -0.396,0.037 -0.9,0.055 -1.513,0.055 -0.145,0 -0.702,-0.045 -1.674,-0.135 -0.973,-0.09 -1.765,-0.136 -2.377,-0.136 v 12.591 c -0.864,0.502 -1.737,0.879 -2.619,1.13 -0.883,0.252 -1.99,0.377 -3.322,0.377 -4.104,0 -7.291,-1.33 -9.56,-3.99 -2.269,-2.66 -3.403,-6.326 -3.403,-11 0,-4.853 1.116,-8.861 3.349,-12.024 2.448,-3.451 5.815,-5.177 10.101,-5.177 2.16,0 4.167,0.478 6.022,1.432 1.854,0.954 3.394,2.313 4.618,4.077 h 0.756 c 0.216,-1.836 0.72,-3.654 1.513,-5.455 -2.018,-1.151 -4.088,-1.989 -6.212,-2.512 -2.125,-0.521 -4.394,-0.783 -6.806,-0.783 -6.518,0 -11.793,1.709 -15.825,5.125 -4.321,3.668 -6.481,8.72 -6.481,15.155 0,6.041 2.16,10.698 6.481,13.97 3.889,2.948 8.912,4.423 15.069,4.423 2.232,0 4.483,-0.206 6.752,-0.618 2.269,-0.413 4.824,-1.015 7.669,-1.805 v -14.915 c -0.144,0 -0.991,0.073 -2.538,0.215 z m -58.496,16.204 h 20.579 c -0.037,-0.288 -0.091,-0.684 -0.162,-1.188 -0.073,-0.504 -0.108,-0.882 -0.108,-1.134 0,-0.288 0.027,-0.648 0.081,-1.08 0.054,-0.433 0.116,-0.846 0.189,-1.243 -1.837,0.253 -3.736,0.441 -5.698,0.567 -1.964,0.127 -4.223,0.189 -6.779,0.189 v -13.72 h 5.617 c 1.008,0 2.151,0.055 3.43,0.162 1.278,0.108 2.35,0.217 3.214,0.324 -0.036,-0.287 -0.09,-0.684 -0.162,-1.188 -0.072,-0.503 -0.107,-0.882 -0.107,-1.134 0,-0.288 0.026,-0.648 0.081,-1.08 0.054,-0.433 0.116,-0.846 0.188,-1.242 -1.477,0.216 -2.602,0.351 -3.375,0.405 -0.775,0.054 -1.864,0.08 -3.269,0.08 h -5.617 v -11.612 c 2.557,0 4.815,0.063 6.779,0.189 1.962,0.126 3.861,0.315 5.698,0.566 -0.037,-0.287 -0.091,-0.683 -0.162,-1.188 -0.073,-0.504 -0.108,-0.882 -0.108,-1.135 0,-0.287 0.027,-0.647 0.081,-1.08 0.054,-0.432 0.116,-0.846 0.189,-1.242 H 698.48 Z m -39.537,0 2.161,0.271 v -26.25 l 5.887,6.157 c 2.881,3.024 5.905,6.302 9.074,9.83 3.024,3.421 6.067,6.824 9.128,10.208 l 4.591,0.055 v -37.053 l -2.16,0.162 -2.16,-0.162 v 25.277 c -1.404,-1.62 -3.97,-4.446 -7.697,-8.479 -3.727,-4.032 -6.365,-6.859 -7.912,-8.48 -2.773,-2.951 -5.348,-5.725 -7.725,-8.317 h -5.347 v 36.944 z m -57.036,0 2.161,0.271 v -26.25 l 5.887,6.157 c 2.881,3.024 5.905,6.302 9.074,9.83 3.024,3.421 6.067,6.824 9.128,10.208 l 4.591,0.055 v -37.053 l -2.16,0.162 -2.16,-0.162 v 25.277 c -1.404,-1.62 -3.97,-4.446 -7.697,-8.479 -3.727,-4.032 -6.365,-6.859 -7.912,-8.48 -2.773,-2.951 -5.348,-5.725 -7.725,-8.317 h -5.347 v 36.944 z m -26.576,-26.902 4.81,12.589 h -9.874 z m 8.05,21.394 c 0.433,1.296 1.044,3.223 1.837,5.779 0.216,0 0.882,-0.046 1.998,-0.136 1.116,-0.09 1.998,-0.135 2.646,-0.135 0.216,0 0.882,0.045 1.999,0.135 1.115,0.09 1.998,0.136 2.646,0.136 l -15.069,-37.539 -2.053,0.162 -2.053,-0.162 -15.447,37.539 2.593,-0.271 2.538,0.271 c 0.324,-1.163 0.747,-2.518 1.27,-4.063 0.521,-1.544 1.358,-3.953 2.512,-7.226 h 12.585 c 0.647,1.585 1.313,3.422 1.998,5.51 z m -30.517,-10.696 c -0.396,0.037 -0.9,0.055 -1.512,0.055 -0.145,0 -0.702,-0.045 -1.675,-0.135 -0.972,-0.09 -1.765,-0.136 -2.376,-0.136 v 12.591 c -0.864,0.502 -1.738,0.879 -2.62,1.13 -0.883,0.252 -1.99,0.377 -3.321,0.377 -4.105,0 -7.292,-1.33 -9.561,-3.99 -2.269,-2.66 -3.403,-6.326 -3.403,-11 0,-4.853 1.116,-8.861 3.35,-12.024 2.448,-3.451 5.814,-5.177 10.1,-5.177 2.161,0 4.168,0.478 6.022,1.432 1.854,0.954 3.394,2.313 4.618,4.077 h 0.757 c 0.216,-1.836 0.72,-3.654 1.512,-5.455 -2.017,-1.151 -4.087,-1.989 -6.211,-2.512 -2.125,-0.521 -4.394,-0.783 -6.806,-0.783 -6.518,0 -11.793,1.709 -15.826,5.125 -4.32,3.668 -6.481,8.72 -6.481,15.155 0,6.041 2.161,10.698 6.481,13.97 3.889,2.948 8.912,4.423 15.07,4.423 2.231,0 4.482,-0.206 6.751,-0.618 2.269,-0.413 4.825,-1.015 7.67,-1.805 v -14.915 c -0.144,0 -0.991,0.073 -2.539,0.215 z m -71.026,16.204 2.161,0.271 v -26.25 l 5.887,6.157 c 2.88,3.024 5.905,6.302 9.074,9.83 3.025,3.421 6.067,6.824 9.128,10.208 l 4.591,0.055 v -37.053 l -2.161,0.162 -2.161,-0.162 v 25.277 c -1.404,-1.62 -3.97,-4.446 -7.697,-8.479 -3.727,-4.032 -6.365,-6.859 -7.913,-8.48 -2.773,-2.951 -5.347,-5.725 -7.724,-8.317 h -5.347 v 36.944 z m -43.695,-11.351 c 0.144,1.169 0.36,2.238 0.648,3.208 0.936,3.237 2.971,5.628 6.103,7.174 2.593,1.259 5.761,1.888 9.506,1.888 1.908,0 3.745,-0.225 5.509,-0.674 1.764,-0.449 3.33,-1.178 4.699,-2.185 2.52,-1.726 4.176,-4.045 4.969,-6.957 0.504,-1.834 0.756,-4.729 0.756,-8.685 v -19.2 l -2.161,0.162 -2.16,-0.162 v 16.34 c 0,2.589 -0.054,4.835 -0.162,6.741 -0.108,1.905 -0.378,3.379 -0.81,4.421 -0.973,2.409 -2.179,4.1 -3.619,5.07 -1.44,0.97 -3.439,1.455 -5.995,1.455 -2.449,0 -4.501,-0.772 -6.158,-2.319 -0.937,-0.897 -1.575,-1.77 -1.917,-2.614 -0.343,-0.845 -0.64,-1.94 -0.892,-3.289 -0.252,-1.349 -0.387,-2.688 -0.405,-4.019 -0.019,-1.33 -0.027,-2.678 -0.027,-4.044 v -2.427 -15.315 c -0.144,0 -0.991,0.072 -2.539,0.216 -0.396,0.036 -0.9,0.055 -1.512,0.055 -0.144,0 -0.702,-0.045 -1.674,-0.136 -0.972,-0.089 -1.765,-0.135 -2.376,-0.135 v 22.006 c 0.001,1.114 0.073,2.257 0.217,3.425 z m -21.281,11.351 c 3.601,0 6.589,-0.828 8.966,-2.484 2.736,-1.908 4.104,-4.609 4.104,-8.102 0,-2.989 -1.134,-5.275 -3.402,-6.86 -1.621,-1.115 -3.727,-1.8 -6.32,-2.052 v -0.486 c 2.52,-0.359 4.573,-1.242 6.158,-2.646 1.8,-1.584 2.701,-3.583 2.701,-5.995 0,-2.952 -1.117,-5.113 -3.349,-6.481 -1.801,-1.116 -4.267,-1.675 -7.399,-1.675 h -13.935 v 36.782 h 12.476 z m 2.323,-16.204 c 1.584,1.188 2.376,3.188 2.376,5.996 0,2.16 -0.658,3.88 -1.972,5.158 -1.314,1.278 -2.781,1.917 -4.402,1.917 h -2.701 v -14.637 c 3.061,0.001 5.295,0.522 6.699,1.566 z m -3.943,-17.607 c 1.836,0 3.258,0.521 4.267,1.561 1.008,1.04 1.513,2.51 1.513,4.409 0,1.112 -0.189,2.152 -0.567,3.12 -0.378,0.969 -0.964,1.794 -1.755,2.475 -0.613,0.538 -1.269,0.897 -1.971,1.076 -0.702,0.179 -1.558,0.269 -2.566,0.269 h -1.674 V 195.55 c 0.97,-0.144 1.889,-0.215 2.753,-0.215 z m -35.001,6.909 4.809,12.589 h -9.873 z m 8.05,21.394 c 0.432,1.296 1.044,3.223 1.836,5.779 0.216,0 0.882,-0.046 1.999,-0.136 1.116,-0.09 1.999,-0.135 2.646,-0.135 0.216,0 0.882,0.045 1.999,0.135 1.116,0.09 1.999,0.136 2.646,0.136 l -15.069,-37.539 -2.052,0.162 -2.053,-0.162 -15.447,37.539 2.593,-0.271 2.539,0.271 c 0.324,-1.163 0.747,-2.518 1.269,-4.063 0.521,-1.544 1.359,-3.953 2.512,-7.226 h 12.585 c 0.646,1.585 1.312,3.422 1.997,5.51 z m -30.085,-27.223 c 0.54,0.036 2.124,0.216 4.753,0.54 -0.036,-0.251 -0.09,-0.567 -0.162,-0.945 -0.072,-0.378 -0.108,-0.837 -0.108,-1.377 0,-0.252 0.027,-0.567 0.081,-0.945 0.054,-0.378 0.116,-0.818 0.189,-1.323 h -27.816 c 0.036,0.252 0.09,0.567 0.162,0.945 0.072,0.378 0.108,0.819 0.108,1.323 0,0.288 -0.027,0.621 -0.081,0.999 -0.054,0.378 -0.117,0.819 -0.189,1.323 1.945,-0.251 3.627,-0.44 5.05,-0.567 1.422,-0.125 3.087,-0.188 4.996,-0.188 v 33.218 c 0.144,0 0.702,-0.046 1.674,-0.136 0.972,-0.09 1.764,-0.135 2.376,-0.135 0.144,0 0.99,0.071 2.539,0.216 0.396,0.036 0.9,0.055 1.513,0.055 V 196.2 c 1.656,-10e-4 3.294,0.071 4.915,0.215 z m -66.543,32.866 c 0.972,-0.09 1.764,-0.135 2.376,-0.135 0.144,0 0.99,0.071 2.539,0.216 0.396,0.036 0.9,0.055 1.513,0.055 V 212.24 l 12.261,17.177 c 0.143,0 0.702,-0.046 1.674,-0.136 0.972,-0.09 1.764,-0.135 2.376,-0.135 0.144,0 0.99,0.071 2.539,0.216 0.396,0.036 0.899,0.055 1.512,0.055 v -0.757 l -14.529,-20.902 5.131,-5.672 8.858,-9.29 v -0.432 c -0.505,0.072 -0.955,0.135 -1.35,0.189 -0.397,0.054 -0.901,0.081 -1.513,0.081 -0.324,0 -0.729,-0.027 -1.215,-0.081 -0.486,-0.055 -1.053,-0.117 -1.701,-0.189 -4.178,5.258 -8.858,10.893 -14.043,16.906 v -16.906 c -0.145,0 -0.991,0.072 -2.539,0.216 -0.397,0.036 -0.901,0.055 -1.513,0.055 -0.144,0 -0.702,-0.045 -1.674,-0.136 -0.972,-0.089 -1.765,-0.135 -2.376,-0.135 v 37.053 c 0.143,0 0.702,-0.046 1.674,-0.136 z m -40.941,-0.135 2.161,0.271 v -26.25 l 5.887,6.157 c 2.88,3.024 5.905,6.302 9.074,9.83 3.025,3.421 6.067,6.824 9.128,10.208 l 4.591,0.055 v -37.053 l -2.161,0.162 -2.161,-0.162 v 25.277 c -1.404,-1.62 -3.97,-4.446 -7.697,-8.479 -3.727,-4.032 -6.365,-6.859 -7.913,-8.48 -2.773,-2.951 -5.347,-5.725 -7.724,-8.317 h -5.347 v 36.944 z m -26.575,-26.902 4.809,12.589 h -9.873 z m 8.049,21.394 c 0.432,1.296 1.044,3.223 1.836,5.779 0.216,0 0.882,-0.046 1.999,-0.136 1.116,-0.09 1.999,-0.135 2.646,-0.135 0.216,0 0.882,0.045 1.999,0.135 1.116,0.09 1.999,0.136 2.646,0.136 l -15.069,-37.539 -2.052,0.162 -2.053,-0.162 -15.447,37.539 2.593,-0.271 2.539,0.271 c 0.324,-1.163 0.747,-2.518 1.269,-4.063 0.521,-1.544 1.359,-3.953 2.512,-7.226 h 12.585 c 0.647,1.585 1.313,3.422 1.997,5.51 z m -40.454,5.508 c 3.601,0 6.589,-0.828 8.966,-2.484 2.736,-1.908 4.104,-4.609 4.104,-8.102 0,-2.989 -1.134,-5.275 -3.402,-6.86 -1.621,-1.115 -3.727,-1.8 -6.32,-2.052 v -0.486 c 2.52,-0.359 4.573,-1.242 6.158,-2.646 1.8,-1.584 2.701,-3.583 2.701,-5.995 0,-2.952 -1.117,-5.113 -3.349,-6.481 -1.801,-1.116 -4.267,-1.675 -7.399,-1.675 h -13.935 v 36.782 h 12.476 z m 2.322,-16.204 c 1.584,1.188 2.376,3.188 2.376,5.996 0,2.16 -0.658,3.88 -1.972,5.158 -1.314,1.278 -2.781,1.917 -4.402,1.917 h -2.701 v -14.637 c 3.062,0.001 5.295,0.522 6.699,1.566 z m -3.942,-17.607 c 1.836,0 3.258,0.521 4.267,1.561 1.008,1.04 1.513,2.51 1.513,4.409 0,1.112 -0.189,2.152 -0.567,3.12 -0.378,0.969 -0.964,1.794 -1.755,2.475 -0.613,0.538 -1.269,0.897 -1.971,1.076 -0.702,0.179 -1.558,0.269 -2.566,0.269 h -1.674 V 195.55 c 0.97,-0.144 1.888,-0.215 2.753,-0.215 z" />
</g></g>
</svg>